<svg width="166" height="61" viewBox="0 0 166 61" fill="none" xmlns="http://www.w3.org/2000/svg">
<g clip-path="url(#clip0_1764_1250)">
<g clip-path="url(#clip1_1764_1250)">
<path d="M10 32.9746C17.4237 30.5 26.0872 29.2627 34.7507 29.2627V36.6864C26.0872 36.6864 17.4262 37.9237 10 40.3983V32.9746Z" fill="white"/>
<path d="M10 42.873C17.4237 40.3984 26.0872 39.1611 34.7507 39.1611V46.5849C26.0872 46.5849 17.4262 47.8222 10 50.2967V42.873Z" fill="white"/>
<path d="M10 14.4152C17.4237 11.9407 26.0872 10.7034 37.2253 10.7034L34.7507 18.1271C26.0872 18.1271 17.4262 19.3644 10 21.839V14.4152Z" fill="white"/>
<path d="M34.7507 21.8391C27.3245 20.6018 17.4262 20.6018 10 21.8391V29.2628C17.4237 28.0255 27.3245 28.0255 34.7507 29.2628V21.8391Z" fill="white"/>
<path d="M52.916 37.3545C50.9858 37.3545 48.6845 36.8596 47.1255 36.043L47.9916 32.727C49.5753 33.6179 51.555 34.3108 53.0892 34.3108C53.9306 34.3108 54.574 33.9148 54.574 33.2467C54.574 32.5786 53.9058 32.3064 52.4458 31.8609C49.5258 31.1186 48.3628 29.9803 48.3628 27.9759C48.3628 25.4765 50.4662 23.6206 53.9801 23.6206C55.8855 23.6206 58.1126 24.1155 59.6963 24.9569L58.8055 28.2728C57.098 27.3077 55.3411 26.6891 53.8068 26.6891C53.0397 26.6891 52.4458 27.0603 52.4458 27.6542C52.4458 28.2481 53.114 28.4955 54.574 28.9657C57.494 29.807 58.6323 30.8216 58.6323 32.925C58.657 35.4738 56.5041 37.3545 52.916 37.3545Z" fill="white"/>
<path d="M118.032 30.6238L116.844 36.8845H112.588L116.176 18.4242L120.532 18.053L118.304 29.2628H118.354L122.981 23.992H128.054L122.239 30.0299L125.728 36.8598H121.026L118.082 30.5991H118.032V30.6238Z" fill="white"/>
<path d="M70.6123 23.5713C73.2354 23.5713 75.3388 25.7242 75.3388 29.2876C75.3388 33.915 72.1218 37.2557 67.9398 37.2557C66.752 37.2557 65.7127 36.8845 64.8466 36.4638L63.6835 42.6255H59.4272L63.0154 24.0167H67.3211L67.1232 25.0313C67.9893 24.2889 69.0286 23.5713 70.6123 23.5713ZM65.49 33.2221C66.0096 33.7171 66.7272 34.1625 67.6676 34.1625C69.6967 34.1625 70.9835 31.9354 70.9835 29.6835C70.9835 27.8771 69.9937 26.813 68.6822 26.813C67.7666 26.813 67.1479 27.2089 66.6283 27.5801L65.49 33.2221Z" fill="white"/>
<path d="M83.6062 37.3051C79.8201 37.3051 77.1228 34.979 77.1228 31.1929C77.1228 27.0356 80.1665 23.5959 84.6975 23.5959C88.5331 23.5959 91.1314 26.0953 91.1314 29.7576C91.1314 33.8902 88.1371 37.3051 83.6087 37.3051H83.6062ZM84.5713 26.6892C82.4431 26.6892 81.3543 29.337 81.3543 31.4156C81.3543 33.1726 82.2204 34.2119 83.6804 34.2119C85.6106 34.2119 86.7984 31.9353 86.7984 29.4854C86.8231 27.7285 86.0065 26.6892 84.5713 26.6892Z" fill="white"/>
<path d="M110.361 36.8597C109.495 37.1072 108.332 37.3052 107.095 37.3052C104.744 37.3052 102.838 36.1668 102.838 33.7665C102.838 33.3211 102.913 32.8757 103.036 32.4302L105.61 21.0967H109.742L109.124 24.0167H112.613L111.821 27.3326H108.134L107.095 31.9601C107.045 32.1828 106.946 32.4797 106.946 32.7519C106.946 33.5933 107.466 33.8902 108.505 33.8902C108.951 33.8902 109.421 33.7913 109.866 33.618L110.361 36.8597Z" fill="white"/>
<path d="M131.472 31.5394C131.472 33.3459 133.006 34.1625 134.689 34.1625C136.05 34.1625 137.46 33.6676 138.326 33.2221L138.846 36.4638C137.782 36.934 136 37.3052 134.342 37.3052C130.135 37.3052 127.314 35.0781 127.314 31.1435C127.314 26.9615 130.556 23.5713 134.936 23.5713C138.203 23.5713 140.306 25.1798 140.306 28.174C140.306 29.1143 140.059 30.4011 139.687 31.2425L131.494 31.3167C131.469 31.391 131.469 31.4652 131.469 31.5394H131.472ZM136.099 29.2628C136.198 28.9659 136.297 28.372 136.297 28.0503C136.297 27.0109 135.679 26.3923 134.664 26.3923C133.352 26.3923 132.313 27.4811 131.917 29.3123L136.099 29.2628Z" fill="white"/>
<path d="M141.941 39.3342C142.659 39.3342 143.08 39.0867 143.649 38.1464L144.292 37.0823L141.991 23.967H146.346L147.361 32.6776L151.518 23.967H155.997L149.09 36.7606L147.903 38.864C146.22 41.9077 144.611 42.947 142.236 42.947C140.825 42.947 139.365 42.3037 138.375 41.6603L140.083 38.567C140.801 39.062 141.221 39.3342 141.939 39.3342H141.941Z" fill="white"/>
<path d="M102.564 23.9919H94.7938L92.2944 36.8845H96.5507L98.1097 29.0153L98.4314 27.3079H101.772L102.564 23.9919Z" fill="white"/>
</g>
</g>
<defs>
<clipPath id="clip0_1764_1250">
<rect width="146" height="41" fill="white" transform="translate(10 10)"/>
</clipPath>
<clipPath id="clip1_1764_1250">
<rect width="146" height="39.5932" fill="white" transform="translate(10 10.7034)"/>
</clipPath>
</defs>
</svg>
